<svg width="30" height="30" viewBox="0 0 30 30" fill="none" xmlns="http://www.w3.org/2000/svg">
<path d="M24.375 30H5.625C2.51816 30 0 27.4818 0 24.375V5.625C0 2.51816 2.51816 0 5.625 0H24.375C27.4818 0 30 2.51816 30 5.625V24.375C30 27.4818 27.4818 30 24.375 30Z" fill="#D8E6FF"/>
<path d="M20.5726 15.735C20.6026 15.495 20.6251 15.255 20.6251 15C20.6251 14.745 20.6026 14.505 20.5726 14.265L22.1551 13.0275C22.2976 12.915 22.3351 12.7125 22.2451 12.5475L20.7451 9.9525C20.6776 9.8325 20.5501 9.765 20.4151 9.765C20.3701 9.765 20.3251 9.7725 20.2876 9.7875L18.4201 10.5375C18.0301 10.2375 17.6101 9.99 17.1526 9.8025L16.8676 7.815C16.8451 7.635 16.6876 7.5 16.5001 7.5H13.5001C13.3126 7.5 13.1551 7.635 13.1326 7.815L12.8476 9.8025C12.3901 9.99 11.9701 10.245 11.5801 10.5375L9.71262 9.7875C9.66762 9.7725 9.62262 9.765 9.57762 9.765C9.45012 9.765 9.32262 9.8325 9.25512 9.9525L7.75512 12.5475C7.65762 12.7125 7.70262 12.915 7.84512 13.0275L9.42762 14.265C9.39762 14.505 9.37512 14.7525 9.37512 15C9.37512 15.2475 9.39762 15.495 9.42762 15.735L7.84512 16.9725C7.70262 17.085 7.66512 17.2875 7.75512 17.4525L9.25512 20.0475C9.32262 20.1675 9.45012 20.235 9.58512 20.235C9.63012 20.235 9.67512 20.2275 9.71262 20.2125L11.5801 19.4625C11.9701 19.7625 12.3901 20.01 12.8476 20.1975L13.1326 22.185C13.1551 22.365 13.3126 22.5 13.5001 22.5H16.5001C16.6876 22.5 16.8451 22.365 16.8676 22.185L17.1526 20.1975C17.6101 20.01 18.0301 19.755 18.4201 19.4625L20.2876 20.2125C20.3326 20.2275 20.3776 20.235 20.4226 20.235C20.5501 20.235 20.6776 20.1675 20.7451 20.0475L22.2451 17.4525C22.3351 17.2875 22.2976 17.085 22.1551 16.9725L20.5726 15.735ZM19.0876 14.4525C19.1176 14.685 19.1251 14.8425 19.1251 15C19.1251 15.1575 19.1101 15.3225 19.0876 15.5475L18.9826 16.395L19.6501 16.92L20.4601 17.55L19.9351 18.4575L18.9826 18.075L18.2026 17.76L17.5276 18.27C17.2051 18.51 16.8976 18.69 16.5901 18.8175L15.7951 19.14L15.6751 19.9875L15.5251 21H14.4751L14.3326 19.9875L14.2126 19.14L13.4176 18.8175C13.0951 18.6825 12.7951 18.51 12.4951 18.285L11.8126 17.76L11.0176 18.0825L10.0651 18.465L9.54012 17.5575L10.3501 16.9275L11.0176 16.4025L10.9126 15.555C10.8901 15.3225 10.8751 15.15 10.8751 15C10.8751 14.85 10.8901 14.6775 10.9126 14.4525L11.0176 13.605L10.3501 13.08L9.54012 12.45L10.0651 11.5425L11.0176 11.925L11.7976 12.24L12.4726 11.73C12.7951 11.49 13.1026 11.31 13.4101 11.1825L14.2051 10.86L14.3251 10.0125L14.4751 9H15.5176L15.6601 10.0125L15.7801 10.86L16.5751 11.1825C16.8976 11.3175 17.1976 11.49 17.4976 11.715L18.1801 12.24L18.9751 11.9175L19.9276 11.535L20.4526 12.4425L19.6501 13.08L18.9826 13.605L19.0876 14.4525ZM15.0001 12C13.3426 12 12.0001 13.3425 12.0001 15C12.0001 16.6575 13.3426 18 15.0001 18C16.6576 18 18.0001 16.6575 18.0001 15C18.0001 13.3425 16.6576 12 15.0001 12ZM15.0001 16.5C14.1751 16.5 13.5001 15.825 13.5001 15C13.5001 14.175 14.1751 13.5 15.0001 13.5C15.8251 13.5 16.5001 14.175 16.5001 15C16.5001 15.825 15.8251 16.5 15.0001 16.5Z" fill="#4489FE"/>
</svg>
